<svg width="166" height="34" viewBox="0 0 166 34" fill="none" xmlns="http://www.w3.org/2000/svg">
<path d="M0.453125 9H4.24219L7.89063 15.8906H8.04688L11.6953 9H15.4844L9.64844 19.3437V25H6.28906V19.3437L0.453125 9ZM20.2246 25.2344C18.9902 25.2344 17.9277 24.9844 17.0371 24.4844C16.1517 23.9792 15.4694 23.2656 14.9902 22.3437C14.5111 21.4167 14.2715 20.3203 14.2715 19.0547C14.2715 17.8203 14.5111 16.737 14.9902 15.8047C15.4694 14.8724 16.1439 14.1458 17.0137 13.625C17.8887 13.1042 18.9147 12.8438 20.0918 12.8438C20.8835 12.8438 21.6204 12.9714 22.3027 13.2266C22.9902 13.4766 23.5892 13.8542 24.0996 14.3594C24.6152 14.8646 25.0163 15.5 25.3027 16.2656C25.5892 17.026 25.7324 17.9167 25.7324 18.9375V19.8516H15.5996V17.7891H22.5996C22.5996 17.3099 22.4954 16.8854 22.2871 16.5156C22.0788 16.1458 21.7897 15.8568 21.4199 15.6484C21.0553 15.4349 20.6309 15.3281 20.1465 15.3281C19.6413 15.3281 19.1934 15.4453 18.8027 15.6797C18.4173 15.9089 18.1152 16.2187 17.8965 16.6094C17.6777 16.9948 17.5658 17.4245 17.5605 17.8984V19.8594C17.5605 20.4531 17.6699 20.9661 17.8887 21.3984C18.1126 21.8307 18.4277 22.1641 18.834 22.3984C19.2402 22.6328 19.722 22.75 20.2793 22.75C20.6491 22.75 20.9876 22.6979 21.2949 22.5938C21.6022 22.4896 21.8652 22.3333 22.084 22.125C22.3027 21.9167 22.4694 21.6615 22.584 21.3594L25.6621 21.5625C25.5059 22.3021 25.1855 22.9479 24.7012 23.5C24.222 24.0469 23.6022 24.474 22.8418 24.7813C22.0866 25.0833 21.2142 25.2344 20.2246 25.2344ZM31.3262 25.2266C30.5605 25.2266 29.8783 25.0938 29.2793 24.8281C28.6803 24.5573 28.2064 24.1589 27.8574 23.6328C27.5137 23.1016 27.3418 22.4401 27.3418 21.6484C27.3418 20.9818 27.4642 20.4219 27.709 19.9687C27.9538 19.5156 28.2871 19.151 28.709 18.875C29.1309 18.599 29.61 18.3906 30.1465 18.25C30.6882 18.1094 31.2559 18.0104 31.8496 17.9531C32.5475 17.8802 33.11 17.8125 33.5371 17.75C33.9642 17.6823 34.2741 17.5833 34.4668 17.4531C34.6595 17.3229 34.7559 17.1302 34.7559 16.875V16.8281C34.7559 16.3333 34.5996 15.9505 34.2871 15.6797C33.9798 15.4089 33.5423 15.2734 32.9746 15.2734C32.3757 15.2734 31.8991 15.4062 31.5449 15.6719C31.1908 15.9323 30.9564 16.2604 30.8418 16.6562L27.7637 16.4062C27.9199 15.6771 28.2272 15.0469 28.6855 14.5156C29.1439 13.9792 29.735 13.5677 30.459 13.2812C31.1882 12.9896 32.0319 12.8438 32.9902 12.8438C33.6569 12.8438 34.2949 12.9219 34.9043 13.0781C35.5189 13.2344 36.0632 13.4766 36.5371 13.8047C37.0163 14.1328 37.3939 14.5547 37.6699 15.0703C37.946 15.5807 38.084 16.1927 38.084 16.9062V25H34.9277V23.3359H34.834C34.6413 23.7109 34.3835 24.0417 34.0605 24.3281C33.7376 24.6094 33.3496 24.8307 32.8965 24.9922C32.4434 25.1484 31.9199 25.2266 31.3262 25.2266ZM32.2793 22.9297C32.7689 22.9297 33.2012 22.8333 33.5762 22.6406C33.9512 22.4427 34.2454 22.1771 34.459 21.8438C34.6725 21.5104 34.7793 21.1328 34.7793 20.7109V19.4375C34.6751 19.5052 34.5319 19.5677 34.3496 19.625C34.1725 19.6771 33.972 19.7266 33.748 19.7734C33.5241 19.8151 33.3001 19.8542 33.0762 19.8906C32.8522 19.9219 32.6491 19.9505 32.4668 19.9766C32.0762 20.0339 31.735 20.125 31.4434 20.25C31.1517 20.375 30.9251 20.5443 30.7637 20.7578C30.6022 20.9661 30.5215 21.2266 30.5215 21.5391C30.5215 21.9922 30.6855 22.3385 31.0137 22.5781C31.347 22.8125 31.7689 22.9297 32.2793 22.9297ZM43.9941 18.0625V25H40.666V9H43.9004V15.1172H44.041C44.3118 14.4089 44.7493 13.8542 45.3535 13.4531C45.9577 13.0469 46.7155 12.8438 47.627 12.8438C48.4603 12.8438 49.1868 13.026 49.8066 13.3906C50.4316 13.75 50.916 14.2682 51.2598 14.9453C51.6087 15.6172 51.7806 16.4219 51.7754 17.3594V25H48.4473V17.9531C48.4525 17.2135 48.265 16.638 47.8848 16.2266C47.5098 15.8151 46.9837 15.6094 46.3066 15.6094C45.8535 15.6094 45.4525 15.7057 45.1035 15.8984C44.7598 16.0911 44.4889 16.3724 44.291 16.7422C44.0983 17.1068 43.9993 17.5469 43.9941 18.0625ZM56.3398 25.2031C55.8242 25.2031 55.3815 25.0208 55.0117 24.6562C54.6471 24.2865 54.4648 23.8437 54.4648 23.3281C54.4648 22.8177 54.6471 22.3802 55.0117 22.0156C55.3815 21.651 55.8242 21.4687 56.3398 21.4687C56.8398 21.4687 57.2773 21.651 57.6523 22.0156C58.0273 22.3802 58.2148 22.8177 58.2148 23.3281C58.2148 23.6719 58.1263 23.987 57.9492 24.2734C57.7773 24.5547 57.5508 24.7812 57.2695 24.9531C56.9883 25.1198 56.6784 25.2031 56.3398 25.2031ZM61.0098 25V9H64.3926V22.2109H71.252V25H61.0098ZM76.8516 25.2266C76.0859 25.2266 75.4036 25.0938 74.8047 24.8281C74.2057 24.5573 73.7318 24.1589 73.3828 23.6328C73.0391 23.1016 72.8672 22.4401 72.8672 21.6484C72.8672 20.9818 72.9896 20.4219 73.2344 19.9687C73.4792 19.5156 73.8125 19.151 74.2344 18.875C74.6563 18.599 75.1354 18.3906 75.6719 18.25C76.2135 18.1094 76.7813 18.0104 77.375 17.9531C78.0729 17.8802 78.6354 17.8125 79.0625 17.75C79.4896 17.6823 79.7995 17.5833 79.9922 17.4531C80.1849 17.3229 80.2813 17.1302 80.2813 16.875V16.8281C80.2813 16.3333 80.125 15.9505 79.8125 15.6797C79.5052 15.4089 79.0677 15.2734 78.5 15.2734C77.901 15.2734 77.4245 15.4062 77.0703 15.6719C76.7161 15.9323 76.4818 16.2604 76.3672 16.6562L73.2891 16.4062C73.4453 15.6771 73.7526 15.0469 74.2109 14.5156C74.6693 13.9792 75.2604 13.5677 75.9844 13.2812C76.7135 12.9896 77.5573 12.8438 78.5156 12.8438C79.1823 12.8438 79.8203 12.9219 80.4297 13.0781C81.0443 13.2344 81.5885 13.4766 82.0625 13.8047C82.5417 14.1328 82.9193 14.5547 83.1953 15.0703C83.4714 15.5807 83.6094 16.1927 83.6094 16.9062V25H80.4531V23.3359H80.3594C80.1667 23.7109 79.9089 24.0417 79.5859 24.3281C79.263 24.6094 78.875 24.8307 78.4219 24.9922C77.9688 25.1484 77.4453 25.2266 76.8516 25.2266ZM77.8047 22.9297C78.2943 22.9297 78.7266 22.8333 79.1016 22.6406C79.4766 22.4427 79.7708 22.1771 79.9844 21.8438C80.1979 21.5104 80.3047 21.1328 80.3047 20.7109V19.4375C80.2005 19.5052 80.0573 19.5677 79.875 19.625C79.6979 19.6771 79.4974 19.7266 79.2734 19.7734C79.0495 19.8151 78.8255 19.8542 78.6016 19.8906C78.3776 19.9219 78.1745 19.9505 77.9922 19.9766C77.6016 20.0339 77.2604 20.125 76.9688 20.25C76.6771 20.375 76.4505 20.5443 76.2891 20.7578C76.1276 20.9661 76.0469 21.2266 76.0469 21.5391C76.0469 21.9922 76.2109 22.3385 76.5391 22.5781C76.8724 22.8125 77.2943 22.9297 77.8047 22.9297ZM89.5195 18.0625V25H86.1914V13H89.3633V15.1172H89.5039C89.7695 14.4193 90.2148 13.8672 90.8398 13.4609C91.4648 13.0495 92.2227 12.8438 93.1133 12.8438C93.9466 12.8438 94.6732 13.026 95.293 13.3906C95.9128 13.7552 96.3945 14.276 96.7383 14.9531C97.082 15.625 97.2539 16.4271 97.2539 17.3594V25H93.9258V17.9531C93.931 17.2187 93.7435 16.6458 93.3633 16.2344C92.9831 15.8177 92.4596 15.6094 91.793 15.6094C91.3451 15.6094 90.9492 15.7057 90.6055 15.8984C90.2669 16.0911 90.0013 16.3724 89.8086 16.7422C89.6211 17.1068 89.5247 17.5469 89.5195 18.0625ZM105.283 29.75C104.205 29.75 103.281 29.6016 102.51 29.3047C101.744 29.013 101.135 28.6146 100.682 28.1094C100.229 27.6042 99.9342 27.0365 99.7988 26.4062L102.877 25.9922C102.971 26.2318 103.119 26.4557 103.322 26.6641C103.525 26.8724 103.794 27.0391 104.127 27.1641C104.465 27.2943 104.877 27.3594 105.361 27.3594C106.085 27.3594 106.682 27.1823 107.15 26.8281C107.624 26.4792 107.861 25.8932 107.861 25.0703V22.875H107.721C107.575 23.2083 107.356 23.5234 107.064 23.8203C106.773 24.1172 106.398 24.3594 105.939 24.5469C105.481 24.7344 104.934 24.8281 104.299 24.8281C103.398 24.8281 102.577 24.6198 101.838 24.2031C101.104 23.7812 100.518 23.138 100.08 22.2734C99.6478 21.4036 99.4316 20.3047 99.4316 18.9766C99.4316 17.6172 99.653 16.4818 100.096 15.5703C100.538 14.6589 101.127 13.9766 101.861 13.5234C102.601 13.0703 103.411 12.8438 104.291 12.8438C104.963 12.8438 105.525 12.9583 105.979 13.1875C106.432 13.4115 106.796 13.6927 107.072 14.0312C107.354 14.3646 107.57 14.6927 107.721 15.0156H107.846V13H111.15V25.1172C111.15 26.138 110.9 26.9922 110.4 27.6797C109.9 28.3672 109.208 28.8828 108.322 29.2266C107.442 29.5755 106.429 29.75 105.283 29.75ZM105.354 22.3281C105.89 22.3281 106.343 22.1953 106.713 21.9297C107.088 21.6589 107.374 21.2734 107.572 20.7734C107.775 20.2682 107.877 19.6641 107.877 18.9609C107.877 18.2578 107.778 17.6484 107.58 17.1328C107.382 16.612 107.096 16.2083 106.721 15.9219C106.346 15.6354 105.89 15.4922 105.354 15.4922C104.807 15.4922 104.346 15.6406 103.971 15.9375C103.596 16.2292 103.312 16.6354 103.119 17.1562C102.926 17.6771 102.83 18.2786 102.83 18.9609C102.83 19.6536 102.926 20.2526 103.119 20.7578C103.317 21.2578 103.601 21.6458 103.971 21.9219C104.346 22.1927 104.807 22.3281 105.354 22.3281ZM121.494 19.8906V13H124.822V25H121.627V22.8203H121.502C121.231 23.5234 120.781 24.0885 120.15 24.5156C119.525 24.9427 118.762 25.1563 117.861 25.1563C117.059 25.1563 116.354 24.974 115.744 24.6094C115.135 24.2448 114.658 23.7266 114.314 23.0547C113.976 22.3828 113.804 21.5781 113.799 20.6406V13H117.127V20.0469C117.132 20.7552 117.322 21.3151 117.697 21.7266C118.072 22.138 118.575 22.3437 119.205 22.3437C119.606 22.3437 119.981 22.2526 120.33 22.0703C120.679 21.8828 120.96 21.6068 121.174 21.2422C121.393 20.8776 121.499 20.4271 121.494 19.8906ZM130.906 25.2266C130.141 25.2266 129.458 25.0938 128.859 24.8281C128.26 24.5573 127.786 24.1589 127.438 23.6328C127.094 23.1016 126.922 22.4401 126.922 21.6484C126.922 20.9818 127.044 20.4219 127.289 19.9687C127.534 19.5156 127.867 19.151 128.289 18.875C128.711 18.599 129.19 18.3906 129.727 18.25C130.268 18.1094 130.836 18.0104 131.43 17.9531C132.128 17.8802 132.69 17.8125 133.117 17.75C133.544 17.6823 133.854 17.5833 134.047 17.4531C134.24 17.3229 134.336 17.1302 134.336 16.875V16.8281C134.336 16.3333 134.18 15.9505 133.867 15.6797C133.56 15.4089 133.122 15.2734 132.555 15.2734C131.956 15.2734 131.479 15.4062 131.125 15.6719C130.771 15.9323 130.536 16.2604 130.422 16.6562L127.344 16.4062C127.5 15.6771 127.807 15.0469 128.266 14.5156C128.724 13.9792 129.315 13.5677 130.039 13.2812C130.768 12.9896 131.612 12.8438 132.57 12.8438C133.237 12.8438 133.875 12.9219 134.484 13.0781C135.099 13.2344 135.643 13.4766 136.117 13.8047C136.596 14.1328 136.974 14.5547 137.25 15.0703C137.526 15.5807 137.664 16.1927 137.664 16.9062V25H134.508V23.3359H134.414C134.221 23.7109 133.964 24.0417 133.641 24.3281C133.318 24.6094 132.93 24.8307 132.477 24.9922C132.023 25.1484 131.5 25.2266 130.906 25.2266ZM131.859 22.9297C132.349 22.9297 132.781 22.8333 133.156 22.6406C133.531 22.4427 133.826 22.1771 134.039 21.8438C134.253 21.5104 134.359 21.1328 134.359 20.7109V19.4375C134.255 19.5052 134.112 19.5677 133.93 19.625C133.753 19.6771 133.552 19.7266 133.328 19.7734C133.104 19.8151 132.88 19.8542 132.656 19.8906C132.432 19.9219 132.229 19.9505 132.047 19.9766C131.656 20.0339 131.315 20.125 131.023 20.25C130.732 20.375 130.505 20.5443 130.344 20.7578C130.182 20.9661 130.102 21.2266 130.102 21.5391C130.102 21.9922 130.266 22.3385 130.594 22.5781C130.927 22.8125 131.349 22.9297 131.859 22.9297ZM145.652 29.75C144.574 29.75 143.65 29.6016 142.879 29.3047C142.113 29.013 141.504 28.6146 141.051 28.1094C140.598 27.6042 140.303 27.0365 140.168 26.4062L143.246 25.9922C143.34 26.2318 143.488 26.4557 143.691 26.6641C143.895 26.8724 144.163 27.0391 144.496 27.1641C144.835 27.2943 145.246 27.3594 145.73 27.3594C146.454 27.3594 147.051 27.1823 147.52 26.8281C147.993 26.4792 148.23 25.8932 148.23 25.0703V22.875H148.09C147.944 23.2083 147.725 23.5234 147.434 23.8203C147.142 24.1172 146.767 24.3594 146.309 24.5469C145.85 24.7344 145.303 24.8281 144.668 24.8281C143.767 24.8281 142.947 24.6198 142.207 24.2031C141.473 23.7812 140.887 23.138 140.449 22.2734C140.017 21.4036 139.801 20.3047 139.801 18.9766C139.801 17.6172 140.022 16.4818 140.465 15.5703C140.908 14.6589 141.496 13.9766 142.23 13.5234C142.97 13.0703 143.78 12.8438 144.66 12.8438C145.332 12.8438 145.895 12.9583 146.348 13.1875C146.801 13.4115 147.165 13.6927 147.441 14.0312C147.723 14.3646 147.939 14.6927 148.09 15.0156H148.215V13H151.52V25.1172C151.52 26.138 151.27 26.9922 150.77 27.6797C150.27 28.3672 149.577 28.8828 148.691 29.2266C147.811 29.5755 146.798 29.75 145.652 29.75ZM145.723 22.3281C146.259 22.3281 146.712 22.1953 147.082 21.9297C147.457 21.6589 147.743 21.2734 147.941 20.7734C148.145 20.2682 148.246 19.6641 148.246 18.9609C148.246 18.2578 148.147 17.6484 147.949 17.1328C147.751 16.612 147.465 16.2083 147.09 15.9219C146.715 15.6354 146.259 15.4922 145.723 15.4922C145.176 15.4922 144.715 15.6406 144.34 15.9375C143.965 16.2292 143.681 16.6354 143.488 17.1562C143.296 17.6771 143.199 18.2786 143.199 18.9609C143.199 19.6536 143.296 20.2526 143.488 20.7578C143.686 21.2578 143.97 21.6458 144.34 21.9219C144.715 22.1927 145.176 22.3281 145.723 22.3281ZM159.637 25.2344C158.402 25.2344 157.34 24.9844 156.449 24.4844C155.564 23.9792 154.882 23.2656 154.402 22.3437C153.923 21.4167 153.684 20.3203 153.684 19.0547C153.684 17.8203 153.923 16.737 154.402 15.8047C154.882 14.8724 155.556 14.1458 156.426 13.625C157.301 13.1042 158.327 12.8438 159.504 12.8438C160.296 12.8438 161.033 12.9714 161.715 13.2266C162.402 13.4766 163.001 13.8542 163.512 14.3594C164.027 14.8646 164.428 15.5 164.715 16.2656C165.001 17.026 165.145 17.9167 165.145 18.9375V19.8516H155.012V17.7891H162.012C162.012 17.3099 161.908 16.8854 161.699 16.5156C161.491 16.1458 161.202 15.8568 160.832 15.6484C160.467 15.4349 160.043 15.3281 159.559 15.3281C159.053 15.3281 158.605 15.4453 158.215 15.6797C157.829 15.9089 157.527 16.2187 157.309 16.6094C157.09 16.9948 156.978 17.4245 156.973 17.8984V19.8594C156.973 20.4531 157.082 20.9661 157.301 21.3984C157.525 21.8307 157.84 22.1641 158.246 22.3984C158.652 22.6328 159.134 22.75 159.691 22.75C160.061 22.75 160.4 22.6979 160.707 22.5938C161.014 22.4896 161.277 22.3333 161.496 22.125C161.715 21.9167 161.882 21.6615 161.996 21.3594L165.074 21.5625C164.918 22.3021 164.598 22.9479 164.113 23.5C163.634 24.0469 163.014 24.474 162.254 24.7813C161.499 25.0833 160.626 25.2344 159.637 25.2344Z" fill="#58CC02"/>
</svg>
